<mxfile host="app.diagrams.net" modified="2023-11-14T17:20:02.374Z" agent="Mozilla/5.0 (Windows NT 10.0; Win64; x64) AppleWebKit/537.36 (KHTML, like Gecko) Chrome/119.0.0.0 Safari/537.36" version="22.1.1" etag="J8FgfYt_qAxKfxooT8kC" type="github">
  <diagram name="Sayfa -1" id="akfqPg2ODHPAdipePg8m">
    <mxGraphModel>
      <root>
        <mxCell id="0" />
        <mxCell id="1" parent="0" />
      </root>
    </mxGraphModel>
  </diagram>
</mxfile>
